<svg xmlns="http://www.w3.org/2000/svg" xmlns:xlink="http://www.w3.org/1999/xlink" width="500" zoomAndPan="magnify" viewBox="0 0 375 374.999991" height="500" preserveAspectRatio="xMidYMid meet" version="1.0"><defs><clipPath id="8cacdf199e"><path d="M 79.746094 93.460938 L 294.996094 93.460938 L 294.996094 281.710938 L 79.746094 281.710938 Z M 79.746094 93.460938 " clip-rule="nonzero"/></clipPath><clipPath id="a74151b206"><path d="M 168.148438 241.675781 L 185 241.675781 L 185 259.574219 L 168.148438 259.574219 Z M 168.148438 241.675781 " clip-rule="nonzero"/></clipPath><clipPath id="e5ee3e6c65"><path d="M 190.273438 241.675781 L 207 241.675781 L 207 259.574219 L 190.273438 259.574219 Z M 190.273438 241.675781 " clip-rule="nonzero"/></clipPath><clipPath id="ffa955a15d"><path d="M 168.148438 263.636719 L 185 263.636719 L 185 281.539062 L 168.148438 281.539062 Z M 168.148438 263.636719 " clip-rule="nonzero"/></clipPath><clipPath id="c2ea8446c7"><path d="M 190.273438 263.636719 L 207 263.636719 L 207 281.539062 L 190.273438 281.539062 Z M 190.273438 263.636719 " clip-rule="nonzero"/></clipPath></defs><g clip-path="url(#8cacdf199e)"><path fill="#ffffff" d="M 100.71875 93.503906 L 79.65625 93.503906 L 79.65625 205.039062 L 93.46875 205.039062 L 93.46875 105.777344 L 177.886719 190.152344 L 96.078125 271.921875 L 105.847656 281.683594 L 187.65625 199.917969 L 269.464844 281.683594 L 279.234375 271.921875 L 197.425781 190.152344 L 281.84375 105.777344 L 281.84375 205.039062 L 295.65625 205.039062 L 295.65625 93.503906 L 274.59375 93.503906 L 187.65625 180.394531 Z M 100.71875 93.503906 " fill-opacity="1" fill-rule="evenodd"/></g><path fill="#ffffff" d="M 190.585938 242.246094 L 206.667969 242.246094 L 206.667969 258.320312 L 190.585938 258.320312 Z M 190.585938 263.664062 L 206.667969 263.664062 L 206.667969 279.738281 L 190.585938 279.738281 Z M 168.648438 263.664062 L 184.726562 263.664062 L 184.726562 279.738281 L 168.648438 279.738281 Z M 168.648438 242.246094 L 184.726562 242.246094 L 184.726562 258.320312 L 168.648438 258.320312 Z M 168.648438 242.246094 " fill-opacity="1" fill-rule="evenodd"/><g clip-path="url(#a74151b206)"><path fill="#b4b8ab" d="M 168.148438 241.675781 L 184.355469 241.675781 L 184.355469 261.121094 L 168.148438 261.121094 Z M 168.148438 241.675781 " fill-opacity="1" fill-rule="nonzero"/></g><g clip-path="url(#e5ee3e6c65)"><path fill="#b4b8ab" d="M 190.273438 241.675781 L 206.480469 241.675781 L 206.480469 261.121094 L 190.273438 261.121094 Z M 190.273438 241.675781 " fill-opacity="1" fill-rule="nonzero"/></g><g clip-path="url(#ffa955a15d)"><path fill="#b4b8ab" d="M 168.148438 263.636719 L 184.355469 263.636719 L 184.355469 283.085938 L 168.148438 283.085938 Z M 168.148438 263.636719 " fill-opacity="1" fill-rule="nonzero"/></g><g clip-path="url(#c2ea8446c7)"><path fill="#b4b8ab" d="M 190.273438 263.636719 L 206.480469 263.636719 L 206.480469 283.085938 L 190.273438 283.085938 Z M 190.273438 263.636719 " fill-opacity="1" fill-rule="nonzero"/></g></svg>