<svg xmlns="http://www.w3.org/2000/svg" xmlns:xlink="http://www.w3.org/1999/xlink" width="500" zoomAndPan="magnify" viewBox="0 0 375 374.999991" height="500" preserveAspectRatio="xMidYMid meet" version="1.0"><defs><g/><clipPath id="87aeb049c3"><path d="M 129.058594 94 L 246.007812 94 L 246.007812 195.980469 L 129.058594 195.980469 Z M 129.058594 94 " clip-rule="nonzero"/></clipPath><clipPath id="3c13a7f392"><path d="M 177.003906 174.367188 L 186 174.367188 L 186 184.078125 L 177.003906 184.078125 Z M 177.003906 174.367188 " clip-rule="nonzero"/></clipPath><clipPath id="820b685919"><path d="M 189.003906 174.367188 L 198 174.367188 L 198 184.078125 L 189.003906 184.078125 Z M 189.003906 174.367188 " clip-rule="nonzero"/></clipPath><clipPath id="2cf35f0ca2"><path d="M 177.003906 185.53125 L 186 185.53125 L 186 195.242188 L 177.003906 195.242188 Z M 177.003906 185.53125 " clip-rule="nonzero"/></clipPath><clipPath id="97d56c6c05"><path d="M 189.003906 185.53125 L 198 185.53125 L 198 195.242188 L 189.003906 195.242188 Z M 189.003906 185.53125 " clip-rule="nonzero"/></clipPath></defs><g clip-path="url(#87aeb049c3)"><path fill="#153243" d="M 140.417969 94.003906 L 129.007812 94.003906 L 129.007812 154.4375 L 136.492188 154.4375 L 136.492188 100.652344 L 182.21875 146.371094 L 137.902344 190.675781 L 143.195312 195.96875 L 187.507812 151.664062 L 231.824219 195.96875 L 237.113281 190.675781 L 192.800781 146.371094 L 238.527344 100.652344 L 238.527344 154.4375 L 246.007812 154.4375 L 246.007812 94.003906 L 234.601562 94.003906 L 187.507812 141.085938 Z M 140.417969 94.003906 " fill-opacity="1" fill-rule="evenodd"/></g><path fill="#153243" d="M 189.097656 174.597656 L 197.804688 174.597656 L 197.804688 183.308594 L 189.097656 183.308594 Z M 189.097656 186.203125 L 197.804688 186.203125 L 197.804688 194.914062 L 189.097656 194.914062 Z M 177.210938 186.203125 L 185.921875 186.203125 L 185.921875 194.914062 L 177.210938 194.914062 Z M 177.210938 174.597656 L 185.921875 174.597656 L 185.921875 183.308594 L 177.210938 183.308594 Z M 177.210938 174.597656 " fill-opacity="1" fill-rule="evenodd"/><g clip-path="url(#3c13a7f392)"><path fill="#b4b8ab" d="M 177.003906 174.367188 L 185.792969 174.367188 L 185.792969 184.914062 L 177.003906 184.914062 Z M 177.003906 174.367188 " fill-opacity="1" fill-rule="nonzero"/></g><g fill="#284b63" fill-opacity="1"><g transform="translate(36.224381, 253.879656)"><g><path d="M 4.238281 0 L 12.214844 0 L 12.214844 -21.300781 L 20.796875 -8.730469 L 26.347656 -8.730469 L 34.929688 -21.25 L 34.929688 0 L 42.902344 0 L 42.902344 -35.332031 L 36.140625 -35.332031 L 23.621094 -17.011719 L 11.054688 -35.332031 L 4.238281 -35.332031 Z M 4.238281 0 "/></g></g></g><g fill="#284b63" fill-opacity="1"><g transform="translate(84.880291, 253.879656)"><g><path d="M 12.667969 0.503906 C 16.605469 0.503906 19.835938 -0.757812 22.109375 -3.078125 L 22.964844 0 L 28.667969 0 L 28.667969 -15.949219 C 28.667969 -22.964844 23.925781 -27.207031 16 -27.207031 C 9.238281 -27.207031 4.796875 -23.976562 3.835938 -18.222656 L 11.207031 -18.222656 C 11.660156 -20.089844 13.578125 -21.351562 16.050781 -21.351562 C 19.078125 -21.351562 21.148438 -19.636719 21.148438 -17.011719 L 21.148438 -15.796875 L 11.558594 -15.796875 C 6.058594 -15.796875 2.523438 -12.617188 2.523438 -7.722656 C 2.523438 -2.625 6.410156 0.503906 12.667969 0.503906 Z M 10.09375 -8.027344 C 10.09375 -9.84375 11.609375 -11.003906 13.929688 -11.003906 L 21.199219 -11.003906 C 21.046875 -7.417969 18.273438 -4.996094 14.4375 -4.996094 C 11.8125 -4.996094 10.09375 -6.207031 10.09375 -8.027344 Z M 10.09375 -8.027344 "/></g></g></g><g fill="#284b63" fill-opacity="1"><g transform="translate(118.394386, 253.879656)"><g><path d="M 3.835938 0 L 11.507812 0 L 11.507812 -13.878906 C 11.507812 -18.070312 13.832031 -20.644531 17.363281 -20.644531 C 20.644531 -20.644531 22.613281 -18.324219 22.613281 -14.4375 L 22.613281 0 L 30.285156 0 L 30.285156 -15.242188 C 30.285156 -22.5625 26.09375 -27.207031 19.179688 -27.207031 C 15.648438 -27.207031 12.46875 -25.996094 10.347656 -23.519531 L 9.539062 -26.5 L 3.835938 -26.5 Z M 3.835938 0 "/></g></g></g><g fill="#284b63" fill-opacity="1"><g transform="translate(153.523614, 253.879656)"><g><path d="M 12.667969 0.503906 C 16.605469 0.503906 19.835938 -0.757812 22.109375 -3.078125 L 22.964844 0 L 28.667969 0 L 28.667969 -15.949219 C 28.667969 -22.964844 23.925781 -27.207031 16 -27.207031 C 9.238281 -27.207031 4.796875 -23.976562 3.835938 -18.222656 L 11.207031 -18.222656 C 11.660156 -20.089844 13.578125 -21.351562 16.050781 -21.351562 C 19.078125 -21.351562 21.148438 -19.636719 21.148438 -17.011719 L 21.148438 -15.796875 L 11.558594 -15.796875 C 6.058594 -15.796875 2.523438 -12.617188 2.523438 -7.722656 C 2.523438 -2.625 6.410156 0.503906 12.667969 0.503906 Z M 10.09375 -8.027344 C 10.09375 -9.84375 11.609375 -11.003906 13.929688 -11.003906 L 21.199219 -11.003906 C 21.046875 -7.417969 18.273438 -4.996094 14.4375 -4.996094 C 11.8125 -4.996094 10.09375 -6.207031 10.09375 -8.027344 Z M 10.09375 -8.027344 "/></g></g></g><g fill="#284b63" fill-opacity="1"><g transform="translate(187.037703, 253.879656)"><g><path d="M 16.757812 11.207031 C 25.238281 11.207031 30.636719 6.460938 30.636719 -1.464844 L 30.636719 -26.5 L 24.933594 -26.5 L 24.128906 -23.570312 C 21.804688 -25.894531 18.574219 -27.207031 14.789062 -27.207031 C 7.320312 -27.207031 1.96875 -21.703125 1.96875 -13.980469 C 1.96875 -6.207031 7.320312 -0.707031 14.789062 -0.707031 C 17.96875 -0.707031 20.796875 -1.664062 22.964844 -3.332031 L 22.964844 -1.464844 C 22.964844 2.828125 20.796875 4.996094 16.605469 4.996094 C 13.425781 4.996094 11.304688 3.683594 10.75 1.363281 L 3.28125 1.363281 C 3.9375 7.46875 9.085938 11.207031 16.757812 11.207031 Z M 9.539062 -13.980469 C 9.539062 -18.019531 12.367188 -20.847656 16.40625 -20.847656 C 20.441406 -20.847656 23.320312 -18.019531 23.320312 -13.980469 C 23.320312 -9.894531 20.441406 -7.066406 16.40625 -7.066406 C 12.367188 -7.066406 9.539062 -9.894531 9.539062 -13.980469 Z M 9.539062 -13.980469 "/></g></g></g><g fill="#284b63" fill-opacity="1"><g transform="translate(223.075443, 253.879656)"><g><path d="M 16.355469 0.707031 C 22.863281 0.707031 28.011719 -2.625 30.335938 -8.226562 L 22.5625 -8.226562 C 21.300781 -6.460938 19.027344 -5.453125 16.503906 -5.453125 C 13.023438 -5.453125 10.296875 -7.417969 9.589844 -11.054688 L 30.839844 -11.054688 C 31.292969 -20.746094 25.539062 -27.207031 16.453125 -27.207031 C 7.875 -27.207031 1.96875 -21.503906 1.96875 -13.273438 C 1.96875 -4.996094 7.824219 0.707031 16.355469 0.707031 Z M 9.640625 -15.898438 C 10.5 -19.128906 13.125 -21.097656 16.503906 -21.097656 C 20.039062 -21.097656 22.5625 -19.128906 23.421875 -15.898438 Z M 9.640625 -15.898438 "/></g></g></g><g fill="#284b63" fill-opacity="1"><g transform="translate(257.346628, 253.879656)"><g><path d="M 4.238281 0 L 12.214844 0 L 12.214844 -21.300781 L 20.796875 -8.730469 L 26.347656 -8.730469 L 34.929688 -21.25 L 34.929688 0 L 42.902344 0 L 42.902344 -35.332031 L 36.140625 -35.332031 L 23.621094 -17.011719 L 11.054688 -35.332031 L 4.238281 -35.332031 Z M 4.238281 0 "/></g></g></g><g fill="#284b63" fill-opacity="1"><g transform="translate(306.002531, 253.879656)"><g><path d="M 16.355469 0.707031 C 22.863281 0.707031 28.011719 -2.625 30.335938 -8.226562 L 22.5625 -8.226562 C 21.300781 -6.460938 19.027344 -5.453125 16.503906 -5.453125 C 13.023438 -5.453125 10.296875 -7.417969 9.589844 -11.054688 L 30.839844 -11.054688 C 31.292969 -20.746094 25.539062 -27.207031 16.453125 -27.207031 C 7.875 -27.207031 1.96875 -21.503906 1.96875 -13.273438 C 1.96875 -4.996094 7.824219 0.707031 16.355469 0.707031 Z M 9.640625 -15.898438 C 10.5 -19.128906 13.125 -21.097656 16.503906 -21.097656 C 20.039062 -21.097656 22.5625 -19.128906 23.421875 -15.898438 Z M 9.640625 -15.898438 "/></g></g></g><g fill="#1a1a1a" fill-opacity="1"><g transform="translate(39.915612, 283.668322)"><g><path d="M 4.59375 0.0625 C 3.832031 0.0625 3.144531 -0.101562 2.53125 -0.4375 C 1.914062 -0.78125 1.4375 -1.25 1.09375 -1.84375 C 0.75 -2.4375 0.578125 -3.101562 0.578125 -3.84375 C 0.578125 -4.59375 0.75 -5.265625 1.09375 -5.859375 C 1.4375 -6.453125 1.914062 -6.914062 2.53125 -7.25 C 3.15625 -7.59375 3.847656 -7.765625 4.609375 -7.765625 C 5.179688 -7.765625 5.707031 -7.664062 6.1875 -7.46875 C 6.675781 -7.28125 7.085938 -7.003906 7.421875 -6.640625 L 6.90625 -6.125 C 6.300781 -6.738281 5.539062 -7.046875 4.625 -7.046875 C 4.019531 -7.046875 3.46875 -6.90625 2.96875 -6.625 C 2.46875 -6.34375 2.078125 -5.957031 1.796875 -5.46875 C 1.515625 -4.988281 1.375 -4.445312 1.375 -3.84375 C 1.375 -3.25 1.515625 -2.707031 1.796875 -2.21875 C 2.078125 -1.738281 2.46875 -1.359375 2.96875 -1.078125 C 3.46875 -0.796875 4.019531 -0.65625 4.625 -0.65625 C 5.550781 -0.65625 6.3125 -0.960938 6.90625 -1.578125 L 7.421875 -1.0625 C 7.085938 -0.695312 6.675781 -0.414062 6.1875 -0.21875 C 5.695312 -0.03125 5.164062 0.0625 4.59375 0.0625 Z M 4.59375 0.0625 "/></g></g></g><g fill="#1a1a1a" fill-opacity="1"><g transform="translate(54.418997, 283.668322)"><g><path d="M 4.625 0.0625 C 3.851562 0.0625 3.15625 -0.101562 2.53125 -0.4375 C 1.914062 -0.78125 1.4375 -1.25 1.09375 -1.84375 C 0.75 -2.4375 0.578125 -3.101562 0.578125 -3.84375 C 0.578125 -4.59375 0.75 -5.265625 1.09375 -5.859375 C 1.4375 -6.453125 1.914062 -6.914062 2.53125 -7.25 C 3.15625 -7.59375 3.851562 -7.765625 4.625 -7.765625 C 5.382812 -7.765625 6.066406 -7.59375 6.671875 -7.25 C 7.285156 -6.914062 7.769531 -6.453125 8.125 -5.859375 C 8.476562 -5.265625 8.65625 -4.59375 8.65625 -3.84375 C 8.65625 -3.101562 8.476562 -2.4375 8.125 -1.84375 C 7.769531 -1.25 7.285156 -0.78125 6.671875 -0.4375 C 6.066406 -0.101562 5.382812 0.0625 4.625 0.0625 Z M 4.625 -0.65625 C 5.226562 -0.65625 5.773438 -0.789062 6.265625 -1.0625 C 6.753906 -1.34375 7.140625 -1.726562 7.421875 -2.21875 C 7.703125 -2.707031 7.84375 -3.25 7.84375 -3.84375 C 7.84375 -4.445312 7.703125 -4.992188 7.421875 -5.484375 C 7.140625 -5.972656 6.753906 -6.351562 6.265625 -6.625 C 5.773438 -6.90625 5.226562 -7.046875 4.625 -7.046875 C 4.007812 -7.046875 3.453125 -6.90625 2.953125 -6.625 C 2.460938 -6.351562 2.078125 -5.972656 1.796875 -5.484375 C 1.515625 -4.992188 1.375 -4.445312 1.375 -3.84375 C 1.375 -3.25 1.515625 -2.707031 1.796875 -2.21875 C 2.078125 -1.726562 2.460938 -1.34375 2.953125 -1.0625 C 3.453125 -0.789062 4.007812 -0.65625 4.625 -0.65625 Z M 4.625 -0.65625 "/></g></g></g><g fill="#1a1a1a" fill-opacity="1"><g transform="translate(70.241452, 283.668322)"><g><path d="M 9.25 -7.703125 L 9.25 0 L 8.46875 0 L 8.46875 -6.15625 L 5.4375 -0.984375 L 5.0625 -0.984375 L 2.03125 -6.125 L 2.03125 0 L 1.25 0 L 1.25 -7.703125 L 1.921875 -7.703125 L 5.265625 -1.984375 L 8.578125 -7.703125 Z M 9.25 -7.703125 "/></g></g></g><g fill="#1a1a1a" fill-opacity="1"><g transform="translate(87.338995, 283.668322)"><g><path d="M 9.25 -7.703125 L 9.25 0 L 8.46875 0 L 8.46875 -6.15625 L 5.4375 -0.984375 L 5.0625 -0.984375 L 2.03125 -6.125 L 2.03125 0 L 1.25 0 L 1.25 -7.703125 L 1.921875 -7.703125 L 5.265625 -1.984375 L 8.578125 -7.703125 Z M 9.25 -7.703125 "/></g></g></g><g fill="#1a1a1a" fill-opacity="1"><g transform="translate(104.436538, 283.668322)"><g><path d="M 4.359375 0.0625 C 3.359375 0.0625 2.578125 -0.222656 2.015625 -0.796875 C 1.460938 -1.367188 1.1875 -2.195312 1.1875 -3.28125 L 1.1875 -7.703125 L 2 -7.703125 L 2 -3.328125 C 2 -2.429688 2.203125 -1.757812 2.609375 -1.3125 C 3.015625 -0.875 3.597656 -0.65625 4.359375 -0.65625 C 5.128906 -0.65625 5.710938 -0.875 6.109375 -1.3125 C 6.515625 -1.757812 6.71875 -2.429688 6.71875 -3.328125 L 6.71875 -7.703125 L 7.515625 -7.703125 L 7.515625 -3.28125 C 7.515625 -2.195312 7.238281 -1.367188 6.6875 -0.796875 C 6.132812 -0.222656 5.359375 0.0625 4.359375 0.0625 Z M 4.359375 0.0625 "/></g></g></g><g fill="#1a1a1a" fill-opacity="1"><g transform="translate(119.742346, 283.668322)"><g><path d="M 7.6875 -7.703125 L 7.6875 0 L 7.015625 0 L 2.0625 -6.25 L 2.0625 0 L 1.25 0 L 1.25 -7.703125 L 1.921875 -7.703125 L 6.890625 -1.453125 L 6.890625 -7.703125 Z M 7.6875 -7.703125 "/></g></g></g><g fill="#1a1a1a" fill-opacity="1"><g transform="translate(135.278993, 283.668322)"><g><path d="M 1.25 -7.703125 L 2.0625 -7.703125 L 2.0625 0 L 1.25 0 Z M 1.25 -7.703125 "/></g></g></g><g fill="#1a1a1a" fill-opacity="1"><g transform="translate(145.198616, 283.668322)"><g><path d="M 2.75 -7 L 0.046875 -7 L 0.046875 -7.703125 L 6.265625 -7.703125 L 6.265625 -7 L 3.5625 -7 L 3.5625 0 L 2.75 0 Z M 2.75 -7 "/></g></g></g><g fill="#1a1a1a" fill-opacity="1"><g transform="translate(158.108123, 283.668322)"><g><path d="M 3.890625 -2.65625 L 3.890625 0 L 3.09375 0 L 3.09375 -2.65625 L 0.015625 -7.703125 L 0.875 -7.703125 L 3.515625 -3.375 L 6.15625 -7.703125 L 6.96875 -7.703125 Z M 3.890625 -2.65625 "/></g></g></g><g fill="#1a1a1a" fill-opacity="1"><g transform="translate(171.688151, 283.668322)"><g/></g></g><g fill="#1a1a1a" fill-opacity="1"><g transform="translate(181.168081, 283.668322)"><g><path d="M 7.6875 -7.703125 L 7.6875 0 L 6.890625 0 L 6.890625 -3.546875 L 2.0625 -3.546875 L 2.0625 0 L 1.25 0 L 1.25 -7.703125 L 2.0625 -7.703125 L 2.0625 -4.265625 L 6.890625 -4.265625 L 6.890625 -7.703125 Z M 7.6875 -7.703125 "/></g></g></g><g fill="#1a1a1a" fill-opacity="1"><g transform="translate(196.704728, 283.668322)"><g><path d="M 4.625 0.0625 C 3.851562 0.0625 3.15625 -0.101562 2.53125 -0.4375 C 1.914062 -0.78125 1.4375 -1.25 1.09375 -1.84375 C 0.75 -2.4375 0.578125 -3.101562 0.578125 -3.84375 C 0.578125 -4.59375 0.75 -5.265625 1.09375 -5.859375 C 1.4375 -6.453125 1.914062 -6.914062 2.53125 -7.25 C 3.15625 -7.59375 3.851562 -7.765625 4.625 -7.765625 C 5.382812 -7.765625 6.066406 -7.59375 6.671875 -7.25 C 7.285156 -6.914062 7.769531 -6.453125 8.125 -5.859375 C 8.476562 -5.265625 8.65625 -4.59375 8.65625 -3.84375 C 8.65625 -3.101562 8.476562 -2.4375 8.125 -1.84375 C 7.769531 -1.25 7.285156 -0.78125 6.671875 -0.4375 C 6.066406 -0.101562 5.382812 0.0625 4.625 0.0625 Z M 4.625 -0.65625 C 5.226562 -0.65625 5.773438 -0.789062 6.265625 -1.0625 C 6.753906 -1.34375 7.140625 -1.726562 7.421875 -2.21875 C 7.703125 -2.707031 7.84375 -3.25 7.84375 -3.84375 C 7.84375 -4.445312 7.703125 -4.992188 7.421875 -5.484375 C 7.140625 -5.972656 6.753906 -6.351562 6.265625 -6.625 C 5.773438 -6.90625 5.226562 -7.046875 4.625 -7.046875 C 4.007812 -7.046875 3.453125 -6.90625 2.953125 -6.625 C 2.460938 -6.351562 2.078125 -5.972656 1.796875 -5.484375 C 1.515625 -4.992188 1.375 -4.445312 1.375 -3.84375 C 1.375 -3.25 1.515625 -2.707031 1.796875 -2.21875 C 2.078125 -1.726562 2.460938 -1.34375 2.953125 -1.0625 C 3.453125 -0.789062 4.007812 -0.65625 4.625 -0.65625 Z M 4.625 -0.65625 "/></g></g></g><g fill="#1a1a1a" fill-opacity="1"><g transform="translate(212.527179, 283.668322)"><g><path d="M 6.078125 -2.0625 L 1.796875 -2.0625 L 0.875 0 L 0.015625 0 L 3.546875 -7.703125 L 4.34375 -7.703125 L 7.859375 0 L 7 0 Z M 5.78125 -2.71875 L 3.9375 -6.859375 L 2.09375 -2.71875 Z M 5.78125 -2.71875 "/></g></g></g><g fill="#1a1a1a" fill-opacity="1"><g transform="translate(227.008578, 283.668322)"><g/></g></g><g fill="#1a1a1a" fill-opacity="1"><g transform="translate(236.488519, 283.668322)"><g><path d="M 9.25 -7.703125 L 9.25 0 L 8.46875 0 L 8.46875 -6.15625 L 5.4375 -0.984375 L 5.0625 -0.984375 L 2.03125 -6.125 L 2.03125 0 L 1.25 0 L 1.25 -7.703125 L 1.921875 -7.703125 L 5.265625 -1.984375 L 8.578125 -7.703125 Z M 9.25 -7.703125 "/></g></g></g><g fill="#1a1a1a" fill-opacity="1"><g transform="translate(253.58606, 283.668322)"><g><path d="M 6.078125 -2.0625 L 1.796875 -2.0625 L 0.875 0 L 0.015625 0 L 3.546875 -7.703125 L 4.34375 -7.703125 L 7.859375 0 L 7 0 Z M 5.78125 -2.71875 L 3.9375 -6.859375 L 2.09375 -2.71875 Z M 5.78125 -2.71875 "/></g></g></g><g fill="#1a1a1a" fill-opacity="1"><g transform="translate(268.067459, 283.668322)"><g><path d="M 7.6875 -7.703125 L 7.6875 0 L 7.015625 0 L 2.0625 -6.25 L 2.0625 0 L 1.25 0 L 1.25 -7.703125 L 1.921875 -7.703125 L 6.890625 -1.453125 L 6.890625 -7.703125 Z M 7.6875 -7.703125 "/></g></g></g><g fill="#1a1a1a" fill-opacity="1"><g transform="translate(283.604117, 283.668322)"><g><path d="M 6.078125 -2.0625 L 1.796875 -2.0625 L 0.875 0 L 0.015625 0 L 3.546875 -7.703125 L 4.34375 -7.703125 L 7.859375 0 L 7 0 Z M 5.78125 -2.71875 L 3.9375 -6.859375 L 2.09375 -2.71875 Z M 5.78125 -2.71875 "/></g></g></g><g fill="#1a1a1a" fill-opacity="1"><g transform="translate(298.085516, 283.668322)"><g><path d="M 6.671875 -3.84375 L 7.453125 -3.84375 L 7.453125 -0.90625 C 7.097656 -0.59375 6.671875 -0.351562 6.171875 -0.1875 C 5.679688 -0.0195312 5.164062 0.0625 4.625 0.0625 C 3.851562 0.0625 3.160156 -0.101562 2.546875 -0.4375 C 1.929688 -0.78125 1.445312 -1.25 1.09375 -1.84375 C 0.75 -2.4375 0.578125 -3.101562 0.578125 -3.84375 C 0.578125 -4.59375 0.75 -5.265625 1.09375 -5.859375 C 1.445312 -6.453125 1.929688 -6.914062 2.546875 -7.25 C 3.160156 -7.59375 3.859375 -7.765625 4.640625 -7.765625 C 5.222656 -7.765625 5.757812 -7.671875 6.25 -7.484375 C 6.75 -7.296875 7.164062 -7.019531 7.5 -6.65625 L 7 -6.140625 C 6.382812 -6.742188 5.609375 -7.046875 4.671875 -7.046875 C 4.046875 -7.046875 3.484375 -6.90625 2.984375 -6.625 C 2.484375 -6.351562 2.085938 -5.972656 1.796875 -5.484375 C 1.515625 -4.992188 1.375 -4.445312 1.375 -3.84375 C 1.375 -3.25 1.515625 -2.707031 1.796875 -2.21875 C 2.085938 -1.738281 2.484375 -1.359375 2.984375 -1.078125 C 3.484375 -0.796875 4.039062 -0.65625 4.65625 -0.65625 C 5.457031 -0.65625 6.128906 -0.851562 6.671875 -1.25 Z M 6.671875 -3.84375 "/></g></g></g><g fill="#1a1a1a" fill-opacity="1"><g transform="translate(313.182492, 283.668322)"><g><path d="M 6.703125 -0.703125 L 6.703125 0 L 1.25 0 L 1.25 -7.703125 L 6.53125 -7.703125 L 6.53125 -7 L 2.0625 -7 L 2.0625 -4.25 L 6.046875 -4.25 L 6.046875 -3.5625 L 2.0625 -3.5625 L 2.0625 -0.703125 Z M 6.703125 -0.703125 "/></g></g></g><g fill="#1a1a1a" fill-opacity="1"><g transform="translate(327.136273, 283.668322)"><g><path d="M 6.515625 0 L 4.75 -2.46875 C 4.550781 -2.445312 4.347656 -2.4375 4.140625 -2.4375 L 2.0625 -2.4375 L 2.0625 0 L 1.25 0 L 1.25 -7.703125 L 4.140625 -7.703125 C 5.117188 -7.703125 5.882812 -7.46875 6.4375 -7 C 7 -6.53125 7.28125 -5.882812 7.28125 -5.0625 C 7.28125 -4.457031 7.128906 -3.945312 6.828125 -3.53125 C 6.523438 -3.125 6.085938 -2.828125 5.515625 -2.640625 L 7.40625 0 Z M 4.109375 -3.140625 C 4.878906 -3.140625 5.460938 -3.304688 5.859375 -3.640625 C 6.265625 -3.972656 6.46875 -4.445312 6.46875 -5.0625 C 6.46875 -5.6875 6.265625 -6.164062 5.859375 -6.5 C 5.460938 -6.832031 4.878906 -7 4.109375 -7 L 2.0625 -7 L 2.0625 -3.140625 Z M 4.109375 -3.140625 "/></g></g></g><g clip-path="url(#820b685919)"><path fill="#b4b8ab" d="M 189.003906 174.367188 L 197.792969 174.367188 L 197.792969 184.914062 L 189.003906 184.914062 Z M 189.003906 174.367188 " fill-opacity="1" fill-rule="nonzero"/></g><g clip-path="url(#2cf35f0ca2)"><path fill="#b4b8ab" d="M 177.003906 185.53125 L 185.792969 185.53125 L 185.792969 196.078125 L 177.003906 196.078125 Z M 177.003906 185.53125 " fill-opacity="1" fill-rule="nonzero"/></g><g clip-path="url(#97d56c6c05)"><path fill="#b4b8ab" d="M 189.003906 185.53125 L 197.792969 185.53125 L 197.792969 196.078125 L 189.003906 196.078125 Z M 189.003906 185.53125 " fill-opacity="1" fill-rule="nonzero"/></g></svg>